<?xml version="1.0" encoding="utf-8"?>
<!-- Generator: Adobe Illustrator 17.0.0, SVG Export Plug-In . SVG Version: 6.00 Build 0)  -->
<!DOCTYPE svg PUBLIC "-//W3C//DTD SVG 1.1//EN" "http://www.w3.org/Graphics/SVG/1.1/DTD/svg11.dtd">
<svg version="1.1" id="Layer_1" xmlns="http://www.w3.org/2000/svg" xmlns:xlink="http://www.w3.org/1999/xlink" x="0px" y="0px"
	 width="68.167px" height="32.5px" viewBox="0 0 68.167 32.5" enable-background="new 0 0 68.167 32.5" xml:space="preserve">
<g>
	<path d="M1.031,19.624v-3.681l9.24-10.639H1.657V1.513h14.725v3.865l-9.24,10.344h9.497v3.902H1.031z"/>
	<path d="M22.234,11.82c0.073,1.375,0.472,2.466,1.196,3.276c0.724,0.81,1.675,1.215,2.853,1.215c0.785,0,1.478-0.178,2.08-0.534
		c0.601-0.355,0.988-0.853,1.16-1.491h4.933c-0.565,1.866-1.546,3.301-2.945,4.307c-1.399,1.007-3.068,1.509-5.006,1.509
		c-6.037,0-9.056-3.288-9.056-9.866c0-1.399,0.196-2.663,0.589-3.792C18.43,5.317,19,4.347,19.749,3.537
		c0.748-0.81,1.662-1.429,2.742-1.859c1.08-0.429,2.319-0.644,3.718-0.644c2.798,0,4.914,0.896,6.35,2.687
		c1.436,1.792,2.153,4.491,2.153,8.099H22.234z M29.78,8.801c-0.025-0.662-0.142-1.245-0.35-1.749
		c-0.209-0.503-0.485-0.92-0.828-1.252c-0.344-0.331-0.736-0.576-1.178-0.736c-0.442-0.159-0.896-0.239-1.362-0.239
		c-0.957,0-1.785,0.35-2.485,1.049c-0.699,0.699-1.098,1.675-1.196,2.926H29.78z"/>
	<path d="M52.493,19.624v-2.939h-1.913l1.913-4.935V1.513h-4.749v10.454c0,1.203-0.313,2.19-0.939,2.963
		c-0.626,0.773-1.552,1.16-2.779,1.16c-2.037,0-3.055-1.128-3.055-3.387V1.513h-4.786V13.44c0,1.006,0.153,1.914,0.46,2.724
		c0.307,0.81,0.73,1.509,1.27,2.098c0.539,0.589,1.184,1.043,1.933,1.362c0.748,0.319,1.577,0.479,2.485,0.479
		c2.528,0,4.405-1.006,5.632-3.018v2.54H52.493z"/>
	<polygon fill="#FBB040" points="57.74,1.163 65.064,1.163 60.478,10.207 67.293,10.207 52.135,31.543 58.195,15.62 52.135,15.62 	
		"/>
</g>
</svg>
